<?xml version="1.0" standalone="no"?>
<!DOCTYPE svg PUBLIC "-//W3C//DTD SVG 20010904//EN"
 "http://www.w3.org/TR/2001/REC-SVG-20010904/DTD/svg10.dtd">
<svg version="1.0" xmlns="http://www.w3.org/2000/svg"
 width="894.000000pt" height="894.000000pt" viewBox="0 0 894.000000 894.000000"
 preserveAspectRatio="xMidYMid meet">
<metadata>
Created by potrace 1.14, written by Peter Selinger 2001-2017
</metadata>
<g transform="translate(0.000000,894.000000) scale(0.100000,-0.100000)"
fill="#000000" stroke="none">
<path d="M6687 8383 c-4 -4 -18 -8 -30 -9 -12 -1 -42 -5 -67 -9 -25 -4 -55 -8
-67 -8 -13 -1 -23 -4 -23 -8 0 -4 -11 -6 -25 -4 -14 1 -25 -2 -25 -7 0 -4 -11
-6 -25 -4 -13 3 -27 0 -31 -5 -3 -5 -9 -7 -12 -5 -4 2 -39 -2 -77 -9 -39 -7
-73 -11 -77 -8 -5 2 -8 0 -8 -4 0 -5 -10 -9 -22 -10 -24 0 -134 -19 -178 -29
-14 -3 -38 -7 -55 -9 -16 -2 -52 -8 -79 -13 -28 -6 -59 -8 -70 -5 -59 14 -96
20 -96 15 0 -2 -6 0 -13 6 -7 6 -30 13 -52 15 -22 3 -51 8 -65 11 -14 3 -38 8
-55 10 -16 3 -41 7 -55 10 -14 3 -48 8 -75 10 -28 3 -66 8 -85 11 -19 3 -66 8
-105 10 -38 2 -70 4 -70 5 0 5 -106 9 -270 11 -206 2 -344 -5 -511 -26 -27 -3
-69 -8 -94 -11 -43 -4 -56 -7 -107 -18 -21 -5 -101 -17 -138 -22 -11 -1 -20
-3 -20 -4 0 -2 -10 -4 -60 -14 -16 -3 -57 -12 -90 -21 -33 -9 -71 -18 -84 -21
-13 -3 -32 -9 -43 -15 -10 -5 -18 -7 -18 -5 0 3 -12 1 -27 -5 -16 -6 -39 -13
-53 -16 -14 -2 -29 -8 -34 -13 -5 -5 -15 -6 -22 -3 -8 3 -14 1 -14 -4 0 -5 -8
-9 -17 -10 -10 -1 -31 -7 -48 -14 -16 -7 -32 -13 -35 -13 -3 -1 -11 -5 -17 -9
-7 -5 -13 -6 -13 -3 0 3 -24 -5 -52 -17 -29 -13 -55 -24 -58 -25 -77 -14 -656
-312 -668 -343 -2 -5 -7 -9 -12 -9 -5 0 -30 -13 -57 -30 -46 -28 -64 -34 -143
-45 -19 -3 -46 -8 -60 -11 -42 -10 -73 -15 -110 -19 -19 -2 -35 -5 -35 -6 0
-1 -13 -3 -29 -5 -16 -2 -32 -8 -36 -15 -6 -8 -9 -8 -14 0 -4 6 -12 8 -18 5
-6 -4 -22 -8 -37 -10 -14 -1 -37 -5 -51 -8 -42 -10 -104 -19 -127 -20 -13 -1
-23 -4 -23 -7 0 -4 -8 -6 -17 -6 -10 1 -49 -5 -88 -12 -38 -8 -81 -15 -95 -17
-14 -1 -25 -3 -25 -4 0 -2 -34 -9 -75 -14 -19 -3 -35 -5 -35 -6 0 -2 -47 -10
-85 -15 -19 -2 -35 -4 -35 -5 0 -1 -11 -3 -25 -6 -14 -2 -38 -7 -55 -10 -65
-11 -91 -15 -117 -17 -16 -1 -28 -5 -28 -9 0 -4 -9 -5 -20 -3 -11 2 -20 1 -20
-3 0 -4 -16 -7 -35 -6 -19 1 -35 -1 -35 -5 0 -4 -10 -7 -22 -8 -13 -1 -36 -3
-53 -6 -16 -3 -48 -9 -70 -12 -22 -4 -71 -14 -110 -22 -38 -9 -78 -16 -87 -16
-10 -1 -18 -5 -18 -9 0 -4 -6 -8 -14 -8 -8 0 -27 -5 -43 -12 -15 -6 -31 -11
-35 -10 -5 1 -8 -3 -8 -10 0 -6 -3 -8 -6 -5 -4 4 -19 -2 -33 -12 -26 -18 -56
-31 -67 -30 -4 0 -10 -3 -13 -8 -9 -12 -98 -83 -105 -83 -3 0 -30 -25 -61 -55
-30 -30 -52 -55 -49 -55 3 0 -8 -13 -26 -30 -18 -16 -29 -30 -26 -30 6 0 0 -9
-34 -49 -8 -10 -16 -23 -18 -30 -1 -7 -9 -20 -17 -28 -8 -8 -15 -21 -15 -29 0
-9 -7 -22 -15 -31 -8 -8 -13 -19 -10 -24 4 -5 1 -9 -6 -9 -7 0 -9 -3 -6 -7 4
-3 2 -12 -4 -20 -6 -7 -8 -13 -4 -13 4 0 3 -6 -3 -12 -28 -35 -65 -214 -66
-320 -1 -31 -5 -54 -10 -51 -5 4 -6 1 -2 -5 3 -6 9 -39 12 -74 4 -63 9 -100
17 -128 2 -8 7 -36 12 -63 4 -26 11 -50 16 -52 4 -3 6 -12 2 -20 -3 -8 0 -15
6 -15 6 0 11 -7 11 -17 0 -9 13 -45 30 -80 16 -34 30 -68 30 -74 0 -5 5 -7 10
-4 6 3 10 -3 10 -14 0 -11 6 -26 12 -33 7 -7 25 -31 40 -53 15 -22 41 -55 58
-73 16 -18 30 -38 30 -43 0 -6 5 -7 10 -4 6 3 10 -1 10 -9 0 -9 4 -16 10 -16
5 0 22 -12 37 -28 16 -15 46 -41 68 -57 22 -16 42 -32 45 -35 3 -3 20 -12 38
-19 17 -8 32 -17 32 -22 0 -5 9 -9 20 -9 11 0 20 -3 20 -7 0 -5 11 -13 25 -20
19 -8 23 -8 18 0 -3 7 3 3 15 -7 12 -11 22 -15 22 -10 0 5 4 4 8 -1 7 -11 94
-37 125 -39 20 0 21 -17 6 -66 -5 -19 -12 -44 -14 -55 -2 -11 -6 -31 -9 -45
-8 -33 -14 -67 -22 -110 -6 -34 -9 -48 -20 -100 -3 -14 -8 -41 -10 -60 -2 -19
-6 -48 -8 -65 -2 -16 -5 -30 -6 -30 -1 0 -4 -20 -6 -45 -2 -25 -6 -67 -9 -95
-15 -138 -27 -596 -16 -619 2 -5 6 -50 8 -99 2 -50 8 -99 14 -108 6 -12 5 -20
-1 -24 -6 -4 -8 -11 -4 -16 7 -12 13 -45 18 -105 3 -27 5 -49 6 -49 3 0 10
-39 14 -75 3 -19 7 -46 10 -60 3 -14 8 -39 10 -57 3 -18 7 -37 10 -42 4 -5 8
-22 11 -38 10 -69 17 -100 25 -123 12 -31 40 -138 45 -165 1 -11 10 -37 18
-57 8 -20 13 -39 9 -42 -3 -3 -1 -6 4 -6 5 0 10 -8 11 -18 1 -9 16 -53 33 -97
17 -44 33 -87 35 -95 2 -8 11 -33 21 -55 10 -22 18 -42 19 -45 0 -3 9 -23 19
-45 10 -22 32 -69 48 -105 16 -36 34 -74 40 -84 6 -11 27 -51 48 -90 20 -39
48 -89 60 -111 13 -22 28 -49 34 -60 32 -58 199 -308 219 -327 9 -10 17 -22
17 -27 0 -5 6 -16 14 -23 7 -8 46 -54 85 -104 144 -180 421 -465 549 -564 11
-8 43 -35 72 -60 29 -25 53 -43 54 -40 1 3 15 -8 32 -25 17 -16 37 -34 46 -40
76 -50 104 -69 108 -75 3 -4 10 -9 15 -11 6 -2 49 -30 97 -62 48 -31 90 -57
93 -57 3 0 23 -11 45 -25 22 -14 40 -23 40 -21 0 2 26 -9 57 -25 31 -16 64
-29 73 -29 9 0 20 -4 25 -8 6 -5 48 -19 95 -31 47 -13 92 -26 100 -29 18 -6
37 -9 110 -18 75 -8 3104 -8 3160 0 25 4 56 11 70 15 14 4 37 7 53 7 15 -1 27
2 27 6 0 4 3 7 8 6 6 -2 94 22 140 37 7 3 14 3 16 2 1 -1 10 4 19 12 10 7 17
10 17 7 0 -4 10 -1 23 6 12 6 28 13 36 14 8 2 17 6 20 11 3 4 13 9 21 11 18 4
83 34 90 41 3 4 23 15 45 25 22 11 50 29 63 40 12 11 22 16 22 12 0 -4 12 5
27 19 15 14 32 25 36 25 5 0 22 10 37 23 15 12 37 29 50 37 31 21 114 83 120
90 3 3 25 21 50 40 47 35 165 136 212 180 141 133 256 252 338 350 30 36 58
67 61 70 23 21 216 286 237 325 7 14 18 25 23 25 6 0 8 4 5 9 -4 5 -3 11 2 13
4 1 21 26 37 53 15 28 31 52 34 55 6 5 31 50 59 105 9 17 18 32 21 35 3 3 13
19 21 35 8 17 23 44 35 60 11 17 19 32 18 35 0 3 18 46 42 95 23 50 59 131 80
180 20 50 41 98 46 107 5 10 9 22 9 27 0 5 5 22 12 38 6 15 12 31 13 36 2 4 4
9 5 12 1 3 3 8 4 13 1 4 9 30 19 57 9 28 17 52 16 55 0 3 5 19 11 35 12 31 65
223 74 266 9 43 35 173 39 199 3 14 8 36 11 50 3 14 8 48 11 75 3 28 8 64 11
80 34 200 40 789 10 975 -2 14 -7 52 -11 85 -4 32 -8 67 -10 76 -2 9 -6 34
-10 55 -10 64 -16 97 -25 139 -5 22 -11 54 -14 70 -26 144 -127 477 -189 625
-6 14 -11 27 -11 30 -7 42 -250 530 -268 538 -5 2 -8 8 -8 14 0 5 -9 23 -21
39 -11 16 -17 29 -12 29 4 0 3 4 -3 8 -5 4 -37 48 -69 97 -32 50 -63 95 -67
100 -5 6 -34 45 -64 88 -30 42 -60 77 -65 77 -5 0 -8 4 -7 8 2 4 -17 32 -42
61 -25 29 -53 63 -62 75 -27 33 -38 45 -110 123 -52 55 -67 78 -64 95 3 13 5
23 6 23 1 0 3 11 4 25 0 14 5 30 9 37 4 6 4 14 -1 17 -6 4 -8 61 -2 61 6 0 6
55 -1 78 -4 15 -4 27 0 27 4 0 8 7 8 15 0 8 -3 15 -7 15 -4 0 -6 17 -5 38 0
20 -4 48 -10 62 -7 14 -11 37 -10 52 1 15 -4 29 -11 32 -7 3 -11 14 -9 25 2
11 -6 39 -17 63 -12 24 -21 49 -21 56 0 6 -5 12 -10 12 -6 0 -8 3 -4 6 7 7
-20 66 -35 75 -5 3 -10 12 -12 20 -2 14 -30 61 -51 86 -5 7 -16 19 -22 27 -7
8 -13 18 -13 21 0 3 -18 23 -40 45 -22 22 -40 44 -40 50 0 5 -4 10 -9 10 -4 0
-22 14 -39 30 -18 17 -36 30 -41 30 -5 0 -12 7 -15 16 -3 8 -10 12 -16 9 -5
-3 -10 -2 -10 2 0 5 -22 22 -50 38 -27 17 -50 34 -50 38 0 5 -5 5 -11 1 -6 -3
-14 -3 -18 2 -10 14 -49 34 -66 34 -8 0 -15 5 -15 12 0 6 -3 9 -6 5 -3 -3 -31
4 -62 14 -32 11 -74 22 -95 25 -21 3 -44 7 -50 8 -7 1 -18 5 -24 9 -8 5 -13 3
-13 -3 0 -6 -5 -8 -12 -4 -17 10 -139 13 -165 3 -13 -5 -23 -4 -25 2 -2 6 -7
7 -11 2z"/>
</g>
</svg>
